<svg width="230" height="65" viewBox="0 0 230 65" fill="none" xmlns="http://www.w3.org/2000/svg">
<path d="M28.005 0.999998V29H18.565V18.68H9.845V29H0.405V0.999998H9.845V10.92H18.565V0.999998H28.005ZM47.2334 29.64C44.2201 29.64 41.5134 29.0133 39.1134 27.76C36.7134 26.5067 34.8334 24.7733 33.4734 22.56C32.1134 20.32 31.4334 17.8 31.4334 15C31.4334 12.2 32.1134 9.69333 33.4734 7.48C34.8334 5.24 36.7134 3.49333 39.1134 2.24C41.5134 0.986666 44.2201 0.359999 47.2334 0.359999C50.2468 0.359999 52.9534 0.986666 55.3534 2.24C57.7534 3.49333 59.6334 5.24 60.9934 7.48C62.3534 9.69333 63.0334 12.2 63.0334 15C63.0334 17.8 62.3534 20.32 60.9934 22.56C59.6334 24.7733 57.7534 26.5067 55.3534 27.76C52.9534 29.0133 50.2468 29.64 47.2334 29.64ZM47.2334 22C48.4068 22 49.4601 21.72 50.3934 21.16C51.3534 20.5733 52.1134 19.76 52.6734 18.72C53.2334 17.6533 53.5134 16.4133 53.5134 15C53.5134 13.5867 53.2334 12.36 52.6734 11.32C52.1134 10.2533 51.3534 9.44 50.3934 8.88C49.4601 8.29333 48.4068 8 47.2334 8C46.0601 8 44.9934 8.29333 44.0334 8.88C43.1001 9.44 42.3534 10.2533 41.7934 11.32C41.2334 12.36 40.9534 13.5867 40.9534 15C40.9534 16.4133 41.2334 17.6533 41.7934 18.72C42.3534 19.76 43.1001 20.5733 44.0334 21.16C44.9934 21.72 46.0601 22 47.2334 22ZM81.1397 29.64C78.1264 29.64 75.4197 29.0133 73.0197 27.76C70.6197 26.5067 68.7397 24.7733 67.3797 22.56C66.0197 20.32 65.3397 17.8 65.3397 15C65.3397 12.2 66.0197 9.69333 67.3797 7.48C68.7397 5.24 70.6197 3.49333 73.0197 2.24C75.4197 0.986666 78.1264 0.359999 81.1397 0.359999C84.153 0.359999 86.8597 0.986666 89.2597 2.24C91.6597 3.49333 93.5397 5.24 94.8997 7.48C96.2597 9.69333 96.9397 12.2 96.9397 15C96.9397 17.8 96.2597 20.32 94.8997 22.56C93.5397 24.7733 91.6597 26.5067 89.2597 27.76C86.8597 29.0133 84.153 29.64 81.1397 29.64ZM81.1397 22C82.313 22 83.3664 21.72 84.2997 21.16C85.2597 20.5733 86.0197 19.76 86.5797 18.72C87.1397 17.6533 87.4197 16.4133 87.4197 15C87.4197 13.5867 87.1397 12.36 86.5797 11.32C86.0197 10.2533 85.2597 9.44 84.2997 8.88C83.3664 8.29333 82.313 8 81.1397 8C79.9664 8 78.8997 8.29333 77.9397 8.88C77.0064 9.44 76.2597 10.2533 75.6997 11.32C75.1397 12.36 74.8597 13.5867 74.8597 15C74.8597 16.4133 75.1397 17.6533 75.6997 18.72C76.2597 19.76 77.0064 20.5733 77.9397 21.16C78.8997 21.72 79.9664 22 81.1397 22ZM100.366 0.999998H109.806V21.68H122.446V29H100.366V0.999998ZM125.053 0.999998H134.493V29H125.053V0.999998ZM157.558 14.24H165.758V26.08C164.104 27.2267 162.184 28.1067 159.998 28.72C157.811 29.3333 155.664 29.64 153.558 29.64C150.571 29.64 147.891 29.0267 145.518 27.8C143.144 26.5467 141.278 24.8133 139.918 22.6C138.584 20.36 137.918 17.8267 137.918 15C137.918 12.1733 138.584 9.65333 139.918 7.44C141.278 5.2 143.158 3.46667 145.558 2.24C147.984 0.986666 150.718 0.359999 153.758 0.359999C156.504 0.359999 158.958 0.826665 161.118 1.76C163.304 2.66667 165.118 4 166.558 5.76L160.518 11.08C158.758 9.02667 156.664 8 154.238 8C152.158 8 150.504 8.62667 149.278 9.88C148.051 11.1333 147.438 12.84 147.438 15C147.438 17.1067 148.038 18.8 149.238 20.08C150.464 21.36 152.091 22 154.118 22C155.318 22 156.464 21.7733 157.558 21.32V14.24ZM188.86 24.12H178.22L176.34 29H166.74L178.98 0.999998H188.26L200.5 29H190.74L188.86 24.12ZM186.26 17.32L183.54 10.28L180.82 17.32H186.26ZM229.607 0.999998V29H221.847L211.207 16.28V29H202.007V0.999998H209.767L220.407 13.72V0.999998H229.607Z" fill="#E63B3B"/>
<path d="M20.3557 62.536C19.8117 63.176 19.1797 63.664 18.4597 64C17.7397 64.336 16.9637 64.504 16.1317 64.504C15.0757 64.504 14.0837 64.248 13.1557 63.736C12.2437 63.24 11.1957 62.384 10.0117 61.168C8.42772 61.088 6.99572 60.664 5.71572 59.896C4.45172 59.128 3.45972 58.112 2.73972 56.848C2.03572 55.568 1.68372 54.152 1.68372 52.6C1.68372 50.984 2.06772 49.52 2.83572 48.208C3.61972 46.896 4.69172 45.872 6.05172 45.136C7.41172 44.384 8.93972 44.008 10.6357 44.008C12.3157 44.008 13.8357 44.384 15.1957 45.136C16.5557 45.872 17.6197 46.896 18.3877 48.208C19.1557 49.504 19.5397 50.968 19.5397 52.6C19.5397 53.976 19.2597 55.24 18.6997 56.392C18.1557 57.544 17.3797 58.512 16.3717 59.296C15.3797 60.08 14.2357 60.624 12.9397 60.928C13.4997 61.52 14.0357 61.944 14.5477 62.2C15.0757 62.472 15.6117 62.608 16.1557 62.608C17.3397 62.608 18.3637 62.128 19.2277 61.168L20.3557 62.536ZM4.08372 52.6C4.08372 53.816 4.36372 54.92 4.92372 55.912C5.49972 56.888 6.28372 57.656 7.27572 58.216C8.28372 58.776 9.40372 59.056 10.6357 59.056C11.8517 59.056 12.9557 58.776 13.9477 58.216C14.9397 57.656 15.7157 56.888 16.2757 55.912C16.8517 54.92 17.1397 53.816 17.1397 52.6C17.1397 51.384 16.8517 50.288 16.2757 49.312C15.7157 48.32 14.9397 47.544 13.9477 46.984C12.9557 46.424 11.8517 46.144 10.6357 46.144C9.40372 46.144 8.28372 46.424 7.27572 46.984C6.28372 47.544 5.49972 48.32 4.92372 49.312C4.36372 50.288 4.08372 51.384 4.08372 52.6ZM66.408 61.192C64.168 61.192 62.424 60.552 61.176 59.272C59.928 57.992 59.304 56.152 59.304 53.752V44.2H61.704V53.656C61.704 57.256 63.28 59.056 66.432 59.056C67.968 59.056 69.144 58.616 69.96 57.736C70.776 56.84 71.184 55.48 71.184 53.656V44.2H73.512V53.752C73.512 56.168 72.888 58.016 71.64 59.296C70.392 60.56 68.648 61.192 66.408 61.192ZM126.864 58.912V61H114.672V44.2H126.528V46.288H117.072V51.448H125.496V53.488H117.072V58.912H126.864ZM171.886 61.192C170.622 61.192 169.398 61 168.214 60.616C167.046 60.216 166.126 59.704 165.454 59.08L166.342 57.208C166.982 57.784 167.798 58.256 168.79 58.624C169.798 58.976 170.83 59.152 171.886 59.152C173.278 59.152 174.318 58.92 175.006 58.456C175.694 57.976 176.038 57.344 176.038 56.56C176.038 55.984 175.846 55.52 175.462 55.168C175.094 54.8 174.63 54.52 174.07 54.328C173.526 54.136 172.75 53.92 171.742 53.68C170.478 53.376 169.454 53.072 168.67 52.768C167.902 52.464 167.238 52 166.678 51.376C166.134 50.736 165.862 49.88 165.862 48.808C165.862 47.912 166.094 47.104 166.558 46.384C167.038 45.664 167.758 45.088 168.718 44.656C169.678 44.224 170.87 44.008 172.294 44.008C173.286 44.008 174.262 44.136 175.222 44.392C176.182 44.648 177.006 45.016 177.694 45.496L176.902 47.416C176.198 46.968 175.446 46.632 174.646 46.408C173.846 46.168 173.062 46.048 172.294 46.048C170.934 46.048 169.91 46.296 169.222 46.792C168.55 47.288 168.214 47.928 168.214 48.712C168.214 49.288 168.406 49.76 168.79 50.128C169.174 50.48 169.646 50.76 170.206 50.968C170.782 51.16 171.558 51.368 172.534 51.592C173.798 51.896 174.814 52.2 175.582 52.504C176.35 52.808 177.006 53.272 177.55 53.896C178.11 54.52 178.39 55.36 178.39 56.416C178.39 57.296 178.15 58.104 177.67 58.84C177.19 59.56 176.462 60.136 175.486 60.568C174.51 60.984 173.31 61.192 171.886 61.192ZM221.238 46.288H215.478V44.2H229.374V46.288H223.614V61H221.238V46.288Z" fill="white"/>
</svg>
